<svg xmlns="http://www.w3.org/2000/svg" xml:space="preserve" width="481.17868" height="152.51466" viewBox="0 0 481.17868 152.51466"><defs><clipPath id="a" clipPathUnits="userSpaceOnUse"><path d="M0 114.386h360.884V0H0Z"/></clipPath></defs><g clip-path="url(#a)" transform="matrix(1.33333 0 0 -1.33333 0 152.515)"><path d="M0 0c-8.613 5.855-19.646 3.467-25.436-5.338a17.998 17.998 0 0 0-14.968-8.269c-9.213 0-15.522 6.482-17.389 13.191h-.004c-.019.066-.031.119-.051.186-.017.076-.042.148-.06.228-.735 2.797-.914 4.135-.914 7.109 0 16.041 16.455 33.901 40.16 33.901 24.271 0 38.158-18.479 41.736-28.748-.06.179-.116.361-.179.545-6.889 20.086-25.936 34.527-48.358 34.527-28.222 0-51.11-22.879-51.11-51.109 0-25.231 18.199-46.828 43.44-46.828 20.135 0 33.664 11.289 39.871 26.843C10.144-15.254 7.732-5.252 0 0" style="fill:#194067;fill-opacity:1;fill-rule:nonzero;stroke:none" transform="translate(120.661 59.451)"/><path d="M0 0c-2.983 10.016-16.977 29.744-42.056 29.744-23.705 0-40.16-17.859-40.16-33.9 0-2.975.18-4.313.914-7.11a15.082 15.082 0 0 0-.47 3.647c0 16.703 16.728 28.279 33.92 28.279 23.276 0 42.143-18.869 42.143-42.139 0-18.246-10.499-34.035-25.755-41.623l.006-.011c19.663 7.121 33.706 25.955 33.706 48.072C2.248-9.807 1.546-5.191 0 0" style="fill:#e41e37;fill-opacity:1;fill-rule:nonzero;stroke:none" transform="translate(144.055 70.715)"/><path d="M0 0v19.602h-26.428v4.535H5.086V0Zm-20.52-7.193V5.494h4.811V-7.193h6.824V5.494h4.854V-7.193H8.107v-4.442h-37.558v4.442z" style="fill:#5c5c5b;fill-opacity:1;fill-rule:nonzero;stroke:none" transform="translate(200.825 49.897)"/><path d="M0 0c0 1.373-.496 2.541-1.488 3.504-.992.961-2.19 1.443-3.598 1.443-1.404 0-2.609-.482-3.617-1.443-1.008-.963-1.512-2.131-1.512-3.504 0-1.375.504-2.551 1.512-3.527 1.008-.979 2.213-1.465 3.617-1.465 1.408 0 2.606.486 3.598 1.465C-.496-2.551 0-1.375 0 0m-10.627-19.971H.365v4.764H-10.58ZM4.992 0a8.17 8.17 0 0 0-.824-3.619 11.214 11.214 0 0 0-2.152-3.024 11.043 11.043 0 0 0-3.207-1.992 10.153 10.153 0 0 0-3.895-.754c-1.373 0-2.676.252-3.914.754-1.236.504-2.314 1.168-3.23 1.992a11.152 11.152 0 0 0-2.153 3.024A8.143 8.143 0 0 0-15.207 0a8.14 8.14 0 0 0 .824 3.617 11.152 11.152 0 0 0 2.153 3.024A10.485 10.485 0 0 0-9 8.68c1.238.504 2.541.756 3.914.756 1.375 0 2.672-.252 3.895-.756a10.541 10.541 0 0 0 3.207-2.039 11.214 11.214 0 0 0 2.152-3.024A8.168 8.168 0 0 0 4.992 0m5.68-19.971v-12.595H5.588v8.246h-27.391v4.349h6.504l.045 4.764h-8.611v4.396h37.56v-4.396H5.037v-4.764z" style="fill:#5c5c5b;fill-opacity:1;fill-rule:nonzero;stroke:none" transform="translate(241.134 67.713)"/><path d="M293.118 65.863h-21.48v-5.635h21.48zm-21.48 4.397h21.48v5.176h5.039V55.787h-31.513v19.649h4.994zm-8.016-19.971h37.557v-4.488h-16.26V35.266h-5.084v10.535h-16.213z" style="fill:#5c5c5b;fill-opacity:1;fill-rule:nonzero;stroke:none"/></g></svg>