<svg xmlns="http://www.w3.org/2000/svg" xml:space="preserve" width="849.64166" height="273.29883" viewBox="0 0 849.64167 273.29882"><path d="M0 0v.495h-.667v.114h.795V0Zm-.375-.182v.321h.125v-.321h.455v-.112h-.949v.112z" style="fill:#5f5e5e;fill-opacity:1;fill-rule:nonzero;stroke:none" transform="matrix(71.8829 0 0 -71.8829 -619.314 369.895)"/><path d="M0 0a.111.111 0 0 1-.035.081.114.114 0 0 1-.083.035.114.114 0 0 1-.083-.035.114.114 0 0 1 0-.163.114.114 0 0 1 .083-.035c.032 0 .06.012.083.035C-.012-.059 0-.032 0 0m.002-.679c0 .033-.011.06-.035.083a.118.118 0 0 1-.085.034.114.114 0 0 1-.084-.034.109.109 0 0 1-.035-.083.11.11 0 0 1 .035-.083.115.115 0 0 1 .084-.035c.033 0 .061.012.085.035a.11.11 0 0 1 .035.083M.125 0a.198.198 0 0 0-.02-.087.232.232 0 0 0-.053-.071.247.247 0 0 0-.392.071.198.198 0 0 0 0 .173.236.236 0 0 0 .053.072.237.237 0 0 0 .17.067.246.246 0 0 0 .222-.139A.197.197 0 0 0 .125 0m.002-.681a.198.198 0 0 0-.019-.087.248.248 0 0 0-.32-.121.233.233 0 0 0-.13.121.198.198 0 0 0 0 .174.243.243 0 0 0 .225.14.234.234 0 0 0 .171-.068.227.227 0 0 0 .054-.072.198.198 0 0 0 .019-.087m-.505.373v.096h.118v-.096h.284v.096h.118v-.096h.214v-.108h-.948v.108z" style="fill:#5f5e5e;fill-opacity:1;fill-rule:nonzero;stroke:none" transform="matrix(71.8829 0 0 -71.8829 -554.943 334.73)"/><path d="M0 0v-.113h-.948V0h.409v.249h-.333v.549h.128V.362h.683V.249h-.35V0Z" style="fill:#5f5e5e;fill-opacity:1;fill-rule:nonzero;stroke:none" transform="matrix(71.8829 0 0 -71.8829 -453.574 382.856)"/><path d="M0 0a.125.125 0 0 1-.038.091.126.126 0 0 1-.091.037.127.127 0 0 1-.092-.037A.125.125 0 0 1-.259 0c0-.035.013-.066.038-.09a.127.127 0 0 1 .092-.037c.035 0 .065.012.091.037A.122.122 0 0 1 0 0m.124-.002a.22.22 0 0 0-.02-.092.257.257 0 0 0-.054-.075.276.276 0 0 0-.179-.07.276.276 0 0 0-.18.07.237.237 0 0 0-.074.167.233.233 0 0 0 .074.166.263.263 0 0 0 .359 0 .224.224 0 0 0 .074-.166m-.318.377v.096h-.333v.351h.796V.714H-.4V.578h.672V.471h-.338V.375h.411V.266h-.949v.109z" style="fill:#5f5e5e;fill-opacity:1;fill-rule:nonzero;stroke:none" transform="matrix(71.8829 0 0 -71.8829 -401.56 382.28)"/><path d="M359.012 340.933h-38.96v10.208h38.96zm-38.96-7.979h38.96v-9.416h9.13v35.654h-57.147v-35.654h9.057zm-14.593 36.23h68.217v8.122h-29.544v19.121h-9.2v-19.121h-29.473z" style="fill:#5f5e5e;fill-opacity:1;fill-rule:nonzero;stroke:none;stroke-width:71.8827" transform="translate(-672.795)"/><path d="M0 0a1.9 1.9 0 1 0-3.802 0A1.9 1.9 0 0 0 0 0" style="fill:#fff;fill-opacity:1;fill-rule:nonzero;stroke:none" transform="matrix(71.8829 0 0 -71.8829 -349.193 136.65)"/><path d="M0 0a.627.627 0 0 1-.893-.187.633.633 0 0 0-.525-.291.633.633 0 0 0-.61.463l-.002.007-.002.008a.796.796 0 0 0-.032.249c0 .563.577 1.19 1.408 1.19C.196 1.439.684.791.81.43a1.795 1.795 0 0 1-3.497-.563c0-.885.638-1.643 1.524-1.643.707 0 1.181.396 1.399.942A.69.69 0 0 1 0 0" style="fill:#0c426e;fill-opacity:1;fill-rule:nonzero;stroke:none" transform="matrix(71.8829 0 0 -71.8829 -421.572 127.104)"/><path d="M0 0c-.105.352-.596 1.044-1.476 1.044-.832 0-1.409-.627-1.409-1.19 0-.104.006-.151.032-.249a.516.516 0 0 0-.016.128c0 .586.587.992 1.19.992C-.862.725-.2.063-.2-.754a1.63 1.63 0 0 0-.904-1.46v-.001A1.795 1.795 0 0 1 0 0" style="fill:#e6223a;fill-opacity:1;fill-rule:nonzero;stroke:none" transform="matrix(71.8829 0 0 -71.8829 -362.585 98.703)"/><path d="M0 0v.688h-.928v.159H.179V0Zm-.521-.253v.446h.174v-.446h.632v-.155h-1.319v.155z" style="fill:#5f5e5e;fill-opacity:1;fill-rule:nonzero;stroke:none" transform="matrix(71.8829 0 0 -71.8829 404.47 155.57)"/><path d="M0 0c0 .043-.016.08-.048.113a.159.159 0 0 1-.116.048.156.156 0 0 1-.115-.048A.156.156 0 0 1-.326 0c0-.044.015-.082.047-.114a.156.156 0 0 1 .115-.048c.045 0 .084.016.116.048S0-.044 0 0m.003-.944a.152.152 0 0 1-.049.115.163.163 0 0 1-.118.048.16.16 0 0 1-.117-.048.152.152 0 0 1-.049-.115c0-.045.016-.083.049-.116a.16.16 0 0 1 .117-.048c.046 0 .085.016.118.048a.157.157 0 0 1 .049.116M.174 0a.266.266 0 0 0-.028-.121.321.321 0 0 0-.074-.099.33.33 0 0 0-.234-.094.34.34 0 0 0-.237.094.356.356 0 0 0-.074.099.278.278 0 0 0 0 .241.347.347 0 0 0 .441.168A.33.33 0 0 0 .072.22.314.314 0 0 0 .174 0m.003-.947a.278.278 0 0 0-.027-.121.36.36 0 0 0-.181-.169.348.348 0 0 0-.445.169.278.278 0 0 0 0 .242.345.345 0 0 0 .072.101.345.345 0 0 0 .11.068.348.348 0 0 0 .263 0A.351.351 0 0 0 .15-.826a.278.278 0 0 0 .027-.121m-.703.519v.134h.164v-.134h.396v.134h.164v-.134h.297v-.151H-.823v.151z" style="fill:#5f5e5e;fill-opacity:1;fill-rule:nonzero;stroke:none" transform="matrix(71.8829 0 0 -71.8829 493.972 106.674)"/><path d="M0 0v-.158h-1.319V0h.57v.346h-.463v.763h.178V.503h.949V.346h-.486V0Z" style="fill:#5f5e5e;fill-opacity:1;fill-rule:nonzero;stroke:none" transform="matrix(71.8829 0 0 -71.8829 634.927 173.598)"/><path d="M0 0a.172.172 0 0 1-.053.126.174.174 0 0 1-.127.052.174.174 0 0 1-.127-.052A.169.169 0 0 1-.36 0c0-.049.017-.091.053-.125A.174.174 0 0 1-.18-.177c.049 0 .092.017.127.052A.169.169 0 0 1 0 0m.172-.003a.295.295 0 0 0-.028-.128.342.342 0 0 0-.188-.175.347.347 0 0 0-.272 0 .342.342 0 0 0-.188.175.295.295 0 0 0-.028.128c0 .045.009.087.028.128.019.04.044.074.075.103.033.03.071.054.113.072A.343.343 0 0 0-.18.326.347.347 0 0 0-.044.3.403.403 0 0 0 .069.228.338.338 0 0 0 .144.125a.298.298 0 0 0 .028-.128M-.27.521v.133h-.463v.489H.375V.992h-.931V.804h.934v-.15h-.47V.521h.571V.37H-.839v.151z" style="fill:#5f5e5e;fill-opacity:1;fill-rule:nonzero;stroke:none" transform="matrix(71.8829 0 0 -71.8829 707.249 172.792)"/><path d="M1502.094 115.293h-54.2v14.233h54.2zm-54.2-11.142h54.2V91.14h12.723v49.527h-79.502V91.14h12.58zm-20.199 50.39h94.742v11.358h-41.045v26.596h-12.796v-26.596h-40.9z" style="fill:#5f5e5e;fill-opacity:1;fill-rule:nonzero;stroke:none;stroke-width:71.8827" transform="translate(-672.795)"/><path d="M0 0a1.9 1.9 0 1 0-3.802 0A1.9 1.9 0 0 0 0 0" style="fill:#fff;fill-opacity:1;fill-rule:nonzero;stroke:none" transform="matrix(71.8829 0 0 -71.8829 273.299 136.65)"/><path d="M0 0a.627.627 0 0 1-.893-.187.633.633 0 0 0-.525-.291.633.633 0 0 0-.61.463l-.002.007-.002.008a.796.796 0 0 0-.032.249c0 .563.577 1.19 1.408 1.19C.196 1.439.684.791.81.43a1.795 1.795 0 0 1-3.497-.563c0-.885.638-1.643 1.524-1.643.707 0 1.181.396 1.399.942A.69.69 0 0 1 0 0" style="fill:#0c426e;fill-opacity:1;fill-rule:nonzero;stroke:none" transform="matrix(71.8829 0 0 -71.8829 200.92 127.104)"/><path d="M0 0c-.105.352-.596 1.044-1.476 1.044-.832 0-1.409-.627-1.409-1.19 0-.104.006-.151.032-.249a.516.516 0 0 0-.016.128c0 .586.587.992 1.19.992C-.862.725-.2.063-.2-.754a1.63 1.63 0 0 0-.904-1.46v-.001A1.795 1.795 0 0 1 0 0" style="fill:#e6223a;fill-opacity:1;fill-rule:nonzero;stroke:none" transform="matrix(71.8829 0 0 -71.8829 259.9 98.703)"/></svg>