<svg xmlns="http://www.w3.org/2000/svg" xml:space="preserve" width="1246.7766" height="399.8949" viewBox="0 0 1246.7766 399.89488"><path d="M46.992 244.494v16.838h-6.936v-10.634H3.999v-6.204zm-24.87 35.765v-8.229H0v-6.203h51.241v6.203H29.057v8.229h18.06v19.686H40.18V286.4H3.499v-6.14zm62.301 12.154h-6.874v-39.246H56.74v-6.33h27.683zm19.122-27.156h7.998v7.026h-7.998v27.536H96.67v-56.464h6.874zm53.428 6.646V260.51h-29.308v11.394zm0-17.47v-8.673h6.874v32.284h-18.06v11.394h22.184v6.203H116.73v-6.203h22.12v-11.394h-17.996V245.76h6.811v8.673zm65.738-6.837v5.887h-11.373q.875 1.14 1.563 2.405 1 2.153 1 4.495 0 2.405-1.063 4.62-1.062 2.153-2.874 3.735-1.75 1.646-4.187 2.596-2.375.95-5.062.95-2.687 0-5.124-.95-2.375-.95-4.187-2.596-1.75-1.582-2.812-3.734-1.062-2.216-1.062-4.621 0-2.406 1.062-4.558.625-1.266 1.5-2.342h-11.373v-5.887h18.247v-6.267h7.436v6.267zm-15.622 12.597q0-2.659-1.875-4.494-1.874-1.836-4.499-1.836-2.624 0-4.5 1.836-1.874 1.835-1.874 4.494 0 2.658 1.875 4.557 1.875 1.836 4.5 1.836 2.624 0 4.498-1.836 1.875-1.899 1.875-4.557zm19.247 13.863v6.013h-21.934v7.723h-6.936v-7.723h-22.371v-6.013zm-40.18 10.19v8.61h36.743v6.013h-43.68v-14.622zm58.239-32.789h29.308v-7.152h6.873v27.155h-42.992v-27.155h6.811zm29.308 6.077h-29.308v7.786h29.308zm-40.244 21.522h51.242v6.204h-22.184v14.559h-6.936v-14.56h-22.122z" style="font-weight:700;font-size:64.4028px;font-family:Government_16040911;fill:#5f5e5e;stroke-width:3.5092;stroke-linecap:square" transform="matrix(2.69198 0 0 2.69198 480.368 -531.45)"/><path d="M0 0a1.902 1.902 0 1 0-3.804 0A1.902 1.902 0 0 0 0 0" style="fill:#fff;fill-opacity:1;fill-rule:nonzero;stroke:none" transform="matrix(105.12484 0 0 -105.12484 399.895 199.947)"/><path d="M0 0a.629.629 0 0 1-.894-.187.63.63 0 0 0-.525-.291.633.633 0 0 0-.611.464l-.002.006-.002.008a.799.799 0 0 0-.032.25c0 .563.578 1.19 1.41 1.19C.197 1.44.684.791.81.43L.804.449a1.796 1.796 0 0 1-3.493-.581c0-.886.639-1.645 1.525-1.645.707 0 1.182.396 1.4.942.12.299.035.65-.236.835" style="fill:#0c426e;fill-opacity:1;fill-rule:nonzero;stroke:none" transform="matrix(105.12484 0 0 -105.12484 293.97 185.955)"/><path d="M0 0c-.105.352-.596 1.045-1.477 1.045-.832 0-1.41-.627-1.41-1.19 0-.105.006-.152.032-.25a.516.516 0 0 0-.016.128c0 .587.587.993 1.191.993A1.48 1.48 0 0 0-.201-.754c0-.641-.368-1.195-.904-1.462A1.795 1.795 0 0 1 0 0" style="fill:#e6223a;fill-opacity:1;fill-rule:nonzero;stroke:none" transform="matrix(105.12484 0 0 -105.12484 380.299 144.41)"/></svg>