<svg xmlns="http://www.w3.org/2000/svg" width="775.61713pt" height="225pt" viewBox="0 0 775.61713 225"><path fill="#2d4590" d="M561.65 934.732v-4.634c1.543.972 2.874 1.658 3.914 2.045 1.067.401 2.134.585 3.14.585.998 0 1.773-.15 2.31-.455.496-.333.768-.789.768-1.407 0-.496-.157-.87-.47-1.203-.319-.285-1.08-.672-2.282-1.067-2.943-1.04-4.988-2.113-6.11-3.166-1.093-1.087-1.63-2.473-1.63-4.159 0-1.78.707-3.18 2.16-4.315 1.455-1.1 3.317-1.644 5.62-1.644 1.203 0 2.351.136 3.575.421 1.202.293 2.357.727 3.513 1.244v4.254c-1.407-.68-2.657-1.217-3.751-1.543a9.648 9.648 0 0 0-3.03-.496c-.993 0-1.727.13-2.25.435-.516.272-.781.686-.781 1.19 0 .44.237.876.72 1.229.448.4 1.141.754 2.086 1.094.177.081.496.197.897.36 1.95.714 3.397 1.366 4.247 1.896a5.612 5.612 0 0 1 2.045 2.12c.449.863.72 1.903.72 3.065 0 1.936-.76 3.41-2.222 4.518-1.44 1.108-3.438 1.652-6 1.652-1.284 0-2.541-.157-3.723-.503-1.217-.333-2.345-.857-3.466-1.516" style="stroke-width:6.79507" transform="translate(-240.566 -766.258)"/><path fill="#2d4590" d="M580.24 936.392h5.341V915.64h-5.34z" style="stroke-width:6.79506" transform="translate(-240.566 -766.258)"/><path fill="#2d4590" d="M598.878 919.865c1.753 0 3.18.564 4.294 1.692 1.121 1.162 1.658 2.636 1.658 4.45 0 1.808-.537 3.283-1.658 4.43-1.114 1.163-2.541 1.72-4.294 1.72h-3.887v-12.292zM597.6 936.39c2.134 0 3.71-.142 4.777-.387 1.074-.231 2.1-.632 2.97-1.203 1.576-.992 2.758-2.256 3.58-3.77.857-1.49 1.25-3.174 1.25-5.022 0-1.7-.312-3.208-.991-4.608a10.48 10.48 0 0 0-3.03-3.594c-1.02-.788-2.155-1.312-3.378-1.645-1.244-.36-2.956-.523-5.178-.523h-7.78v20.752z" style="stroke-width:6.79507" transform="translate(-240.566 -766.258)"/><path fill="#2d4590" d="M635.806 923.343v13.047h-5.117v-20.752h4.567l11.116 12.36v-12.36h5.117v20.752h-4.063zM660.582 936.39v-16.879h-6.897v-3.873h19.217v3.873h-6.87v16.88zM675.29 936.392h5.354V915.64h-5.354zM694.114 920.92l2.901 7.883h-6.122zm-6.38 15.473 1.644-4.03h8.949l1.495 4.03h5.51l-8.085-20.752h-5.994l-9.071 20.752zM706.747 936.39v-20.752h5.232v16.73h8.888v4.022z" style="stroke-width:6.79506" transform="translate(-240.566 -766.258)"/><path fill="#2d4590" d="M731.172 934.732v-4.634c1.55.972 2.854 1.658 3.935 2.045 1.08.401 2.092.585 3.118.585 1 0 1.774-.15 2.31-.455.504-.333.741-.789.741-1.407 0-.496-.135-.87-.455-1.203-.32-.285-1.06-.672-2.283-1.067-2.963-1.04-4.98-2.113-6.088-3.166-1.128-1.087-1.645-2.473-1.645-4.159 0-1.78.727-3.18 2.175-4.315 1.42-1.1 3.295-1.644 5.626-1.644 1.169 0 2.385.136 3.554.421 1.203.293 2.35.727 3.5 1.244v4.254c-1.4-.68-2.63-1.217-3.724-1.543-1.115-.36-2.086-.496-3.031-.496-.978 0-1.72.13-2.256.435-.51.272-.809.686-.809 1.19 0 .44.259.876.755 1.229.428.4 1.134.754 2.052 1.094.224.081.53.197.897.36 1.984.714 3.424 1.366 4.267 1.896.904.537 1.576 1.25 2.025 2.12.469.863.72 1.903.72 3.065 0 1.936-.734 3.41-2.201 4.518-1.427 1.108-3.439 1.652-5.994 1.652-1.304 0-2.534-.157-3.737-.503a14.238 14.238 0 0 1-3.452-1.516M785.237 934.644a15.839 15.839 0 0 1-3.839 1.603c-1.305.347-2.664.503-4.084.503-1.63 0-3.098-.244-4.478-.747a10.106 10.106 0 0 1-3.574-2.161c-1.033-.999-1.835-2.16-2.358-3.52-.584-1.332-.842-2.765-.842-4.301 0-3.221 1.053-5.817 3.214-7.8 2.133-1.965 4.967-2.957 8.507-2.957 1.264 0 2.494.136 3.697.408 1.223.285 2.398.713 3.553 1.284v4.845c-1.155-.761-2.283-1.298-3.452-1.644-1.134-.388-2.296-.53-3.479-.53-2.038 0-3.71.543-4.899 1.685-1.23 1.141-1.794 2.718-1.794 4.709 0 1.957.564 3.5 1.713 4.675 1.134 1.141 2.697 1.733 4.613 1.733 1.264 0 2.487-.218 3.758-.673a15.515 15.515 0 0 0 3.744-1.937zM807.78 915.64v11.905c0 2.888-.849 5.158-2.582 6.761-1.753 1.652-4.124 2.447-7.23 2.447-3.078 0-5.483-.795-7.216-2.447-1.74-1.603-2.596-3.873-2.596-6.76V915.64h5.233v11.674c0 1.665.407 2.922 1.189 3.812.76.87 1.936 1.305 3.431 1.305 1.488 0 2.63-.435 3.384-1.305.782-.863 1.21-2.133 1.21-3.812V915.64z" style="stroke-width:6.79507" transform="translate(-240.566 -766.258)"/><path fill="#2d4590" d="M831.671 936.392H837V915.64h-5.328zM846.228 936.39v-16.879h-6.856v-3.873h19.202v3.873h-6.87v16.88z" style="stroke-width:6.79506" transform="translate(-240.566 -766.258)"/><path fill="#2d4590" d="M866.322 936.39V927l-8.14-11.362h6.204l4.545 6.72 4.682-6.72h6.19l-8.269 11.328v9.424z" style="stroke-width:6.79506" transform="translate(-240.566 -766.258)"/><path fill="#2d4590" d="M889.164 934.732v-4.634c1.55.972 2.868 1.658 3.928 2.045 1.074.401 2.093.585 3.105.585 1.006 0 1.774-.15 2.304-.455.503-.333.781-.789.781-1.407 0-.496-.176-.87-.469-1.203-.346-.285-1.08-.672-2.303-1.067-2.942-1.04-4.974-2.113-6.075-3.166-1.094-1.087-1.665-2.473-1.665-4.159 0-1.78.72-3.18 2.182-4.315 1.44-1.1 3.33-1.644 5.64-1.644 1.189 0 2.357.136 3.54.421 1.202.293 2.378.727 3.547 1.244v4.254c-1.386-.68-2.664-1.217-3.799-1.543a9.393 9.393 0 0 0-2.976-.496c-.992 0-1.76.13-2.263.435-.537.272-.802.686-.802 1.19 0 .44.225.876.728 1.229.448.4 1.128.754 2.065 1.094.197.081.517.197.89.36 1.978.714 3.439 1.366 4.288 1.896a5.612 5.612 0 0 1 2.045 2.12c.449.863.64 1.903.64 3.065 0 1.936-.674 3.41-2.155 4.518-1.427 1.108-3.438 1.652-6.02 1.652-1.278 0-2.515-.157-3.704-.503-1.216-.333-2.358-.857-3.452-1.516" style="stroke-width:6.79507" transform="translate(-240.566 -766.258)"/><path fill="#2d4590" d="m951.695 936.575-9.41-20.936h5.55l5.118 12.027 5.51-12.027h5.613l-10.152 20.936zM965.636 936.392h5.32V915.64h-5.32z" style="stroke-width:6.79506" transform="translate(-240.566 -766.258)"/><path fill="#2d4590" d="M993.308 934.644a15.244 15.244 0 0 1-3.799 1.603c-1.318.347-2.704.503-4.131.503-1.604 0-3.099-.244-4.471-.747a10.022 10.022 0 0 1-3.554-2.161c-1.047-.999-1.828-2.16-2.399-3.52a11.41 11.41 0 0 1-.829-4.301c0-3.221 1.101-5.817 3.228-7.8 2.168-1.965 5.008-2.957 8.487-2.957 1.311 0 2.528.136 3.717.408 1.216.285 2.392.713 3.58 1.284v4.845a13.49 13.49 0 0 0-3.451-1.644c-1.169-.388-2.304-.53-3.48-.53-2.085 0-3.723.543-4.892 1.685-1.21 1.141-1.793 2.718-1.793 4.709 0 1.957.557 3.5 1.705 4.675 1.135 1.141 2.691 1.733 4.614 1.733 1.223 0 2.48-.218 3.73-.673a14.881 14.881 0 0 0 3.738-1.937z" style="stroke-width:6.79507" transform="translate(-240.566 -766.258)"/><path fill="#2d4590" d="M544.627 919.452h13.855v-3.818h-13.855zM544.626 923.694v12.694h14.155v-3.867h-8.943v-4.96h8.31v-3.867zM613.135 919.452h13.848v-3.818h-13.848zM613.136 923.694v12.694h14.106v-3.867h-8.915v-4.96h8.256v-3.867zM749.689 919.452h13.841v-3.818H749.69zM749.693 923.694v12.694h14.093v-3.867h-8.915v-4.96h8.303v-3.867zM907.735 919.452h13.822v-3.818h-13.822zM907.739 923.694v12.694h14.093v-3.867h-8.909v-4.96h8.256v-3.867zM996.472 919.452h13.849v-3.818h-13.849zM996.47 923.694v12.694h14.141v-3.867h-8.928v-4.96h8.283v-3.867z" style="stroke-width:6.79506" transform="translate(-240.566 -766.258)"/><path fill="#2d4590" d="M519.78 917.18c-1.358-1.02-3.437-1.536-6.23-1.536h-7.651v3.866H513.625c.903 0 1.59.21 2.086.618.51.435.72 1.013.72 1.754 0 .808-.21 1.406-.673 1.793-.496.415-1.189.598-2.174.598h-7.685v12.116h5.259v-8.107h1.977c2.909 0 5.042-.53 6.51-1.59 1.427-1.08 2.147-2.684 2.147-4.838 0-2.086-.652-3.655-2.011-4.675M539.621 929.281c-.32-.68-.645-1.223-1.073-1.685-.395-.394-.877-.727-1.387-.904 1.23-.59 2.127-1.263 2.725-2.1.591-.815.904-1.766.904-2.921 0-2.045-.68-3.581-2.011-4.546-1.353-.978-3.466-1.481-6.272-1.481h-7.652v3.676H532.534c.93 0 1.638.21 2.106.605.524.428.748 1.032.748 1.78 0 .836-.224 1.454-.707 1.835-.469.428-1.189.625-2.147.625h-7.679v12.224h5.172v-8.42c.074 0 .183 0 .298-.04h.333c.993 0 1.76.184 2.297.537.557.333 1.033.999 1.482 1.923l2.65 6h5.884zM826.72 929.281c-.347-.68-.673-1.223-1.108-1.685-.408-.394-.87-.727-1.4-.904 1.217-.59 2.161-1.263 2.746-2.1.598-.815.903-1.766.903-2.921 0-2.045-.68-3.581-2.018-4.546-1.332-.978-3.41-1.481-6.244-1.481h-7.672v3.676h7.712c.897 0 1.584.21 2.114.605.468.428.72 1.032.72 1.78 0 .836-.224 1.454-.707 1.835-.496.428-1.196.625-2.127.625h-7.712v12.224h5.205v-8.42c.088 0 .143 0 .272-.04h.326c.992 0 1.773.184 2.31.537.544.333 1.04.999 1.461 1.923l2.657 6h5.864zM940.107 929.281c-.326-.68-.673-1.223-1.08-1.685-.449-.394-.904-.727-1.38-.904 1.203-.59 2.1-1.263 2.718-2.1.598-.815.884-1.766.884-2.921 0-2.045-.666-3.581-2.039-4.546-1.318-.978-3.411-1.481-6.245-1.481h-7.664v3.676H933.013c.89 0 1.624.21 2.113.605.462.428.734 1.032.734 1.78 0 .836-.272 1.454-.72 1.835-.428.428-1.182.625-2.127.625h-7.712v12.224h5.218v-8.42c.048 0 .136 0 .272-.04h.313c.998 0 1.773.184 2.31.537.578.333 1.074.999 1.474 1.923l2.644 6h5.884zM625.098 955.57v11.872c0 2.915-.884 5.178-2.582 6.802-1.754 1.61-4.18 2.432-7.23 2.432-3.12 0-5.518-.822-7.264-2.432-1.726-1.624-2.576-3.887-2.576-6.802V955.57h5.273v11.68c0 1.638.333 2.916 1.142 3.785.815.857 1.943 1.312 3.438 1.312 1.502 0 2.623-.455 3.425-1.291.761-.89 1.142-2.168 1.142-3.805V955.57z" style="stroke-width:6.79507" transform="translate(-240.566 -766.258)"/><path fill="#2d4590" d="M671.534 976.297v-20.725h5.205v16.736h8.915v3.989zM702.246 976.293h5.34v-20.725h-5.34z" style="stroke-width:6.79506" transform="translate(-240.566 -766.258)"/><path fill="#2d4590" d="M740.818 974.55a16.06 16.06 0 0 1-3.84 1.59 15.9 15.9 0 0 1-4.117.53c-1.57 0-3.072-.244-4.444-.76-1.346-.476-2.562-1.183-3.554-2.161a9.94 9.94 0 0 1-2.412-3.506c-.523-1.325-.795-2.752-.795-4.295 0-3.214 1.067-5.837 3.207-7.787 2.134-1.97 4.967-2.956 8.507-2.956 1.291 0 2.494.13 3.697.394 1.216.279 2.351.7 3.574 1.271v4.852c-1.162-.748-2.297-1.291-3.465-1.672a11.753 11.753 0 0 0-3.439-.516c-2.106 0-3.75.55-4.906 1.685-1.25 1.148-1.848 2.718-1.848 4.73 0 1.95.578 3.512 1.726 4.64 1.135 1.19 2.704 1.76 4.607 1.76 1.257 0 2.487-.238 3.75-.666 1.265-.435 2.502-1.1 3.752-1.93zM783.138 961.342c1.121-1.196 2.535-1.774 4.254-1.774 1.74 0 3.207.578 4.294 1.774 1.101 1.21 1.672 2.745 1.672 4.607 0 1.855-.57 3.377-1.672 4.566-1.087 1.196-2.555 1.787-4.294 1.787-1.72 0-3.133-.59-4.254-1.787-1.114-1.189-1.665-2.711-1.665-4.566 0-1.862.55-3.398 1.665-4.607m-6.197 8.874a9.808 9.808 0 0 0 2.446 3.466c1.054 1.005 2.222 1.746 3.54 2.229 1.353.516 2.807.76 4.465.76 1.63 0 3.112-.244 4.437-.76 1.366-.483 2.548-1.224 3.629-2.23 1.067-.991 1.855-2.16 2.432-3.465.51-1.325.809-2.725.809-4.267 0-1.536-.3-2.963-.809-4.281-.577-1.291-1.365-2.48-2.432-3.506a10.391 10.391 0 0 0-3.581-2.188c-1.325-.496-2.84-.74-4.485-.74-1.658 0-3.112.244-4.464.706-1.319.489-2.535 1.216-3.54 2.222a10.402 10.402 0 0 0-2.447 3.506c-.57 1.318-.842 2.745-.842 4.28 0 1.543.298 2.943.842 4.268M896.419 961.342c1.107-1.196 2.541-1.774 4.233-1.774 1.76 0 3.2.578 4.288 1.774 1.114 1.21 1.685 2.745 1.685 4.607 0 1.855-.57 3.377-1.685 4.566-1.087 1.196-2.528 1.787-4.288 1.787-1.692 0-3.126-.59-4.233-1.787-1.115-1.189-1.699-2.711-1.699-4.566 0-1.862.584-3.398 1.699-4.607m-6.19 8.874a10.05 10.05 0 0 0 2.405 3.466c1.074 1.005 2.256 1.746 3.581 2.229 1.359.516 2.806.76 4.437.76 1.624 0 3.126-.244 4.471-.76 1.346-.483 2.535-1.224 3.615-2.23 1.033-.991 1.862-2.16 2.406-3.465a11.26 11.26 0 0 0 0-8.548c-.544-1.291-1.373-2.48-2.406-3.506-1.08-.979-2.249-1.713-3.58-2.188-1.36-.496-2.841-.74-4.506-.74-1.63 0-3.126.244-4.437.706-1.325.489-2.541 1.216-3.581 2.222-1.074 1.026-1.903 2.215-2.405 3.506-.571 1.318-.843 2.745-.843 4.28 0 1.543.272 2.943.843 4.268" style="stroke-width:6.79507" transform="translate(-240.566 -766.258)"/><path fill="#2d4590" d="M857.052 976.297v-20.725h5.191v9.268l7.02-9.268h5.836l-7.338 9.601 9.187 11.124H870.2l-7.957-9.724v9.724zM1002.088 960.836l2.894 7.855h-6.102zm-6.374 15.46 1.678-4.003h8.915l1.502 4.002h5.47l-8.065-20.725h-5.973l-9.058 20.725zM542.283 959.373h13.835v-3.805h-13.835zM542.208 963.61v12.686h14.14v-3.86h-8.914v-4.947h8.249v-3.873zM961.05 959.373h13.855v-3.805H961.05zM960.99 963.61v12.686h14.12v-3.86h-8.923v-4.947h8.27v-3.873z" style="stroke-width:6.79506" transform="translate(-240.566 -766.258)"/><path fill="#2d4590" d="M589.527 957.117c-1.332-1.019-3.39-1.515-6.224-1.515h-7.652v3.873H583.377c.91 0 1.604.184 2.1.605.482.421.754.999.754 1.767 0 .802-.224 1.386-.727 1.787-.475.374-1.182.611-2.174.611H575.65v12.102h5.246v-8.1h1.998c2.901 0 5.055-.543 6.503-1.623 1.427-1.06 2.174-2.678 2.174-4.811 0-2.107-.68-3.656-2.045-4.696M520.695 969.1c-.32-.666-.673-1.223-1.06-1.665-.428-.441-.89-.774-1.414-.944 1.23-.564 2.127-1.244 2.739-2.059.598-.822.904-1.787.904-2.942 0-2.066-.68-3.602-2.005-4.546-1.366-.972-3.486-1.468-6.292-1.468h-7.665v3.67h7.692c.917 0 1.638.224 2.16.631.443.401.694 1 .694 1.78 0 .81-.231 1.407-.673 1.829-.469.394-1.182.564-2.181.564h-7.692v12.244h5.219v-8.432h.305c.13-.02.218-.02.306-.02.992 0 1.74.155 2.31.536.55.367 1.013.992 1.489 1.95l2.602 5.966h5.857zM940.133 969.22c-.326-.652-.68-1.23-1.114-1.65a3.864 3.864 0 0 0-1.373-.945c1.223-.557 2.134-1.25 2.718-2.08.598-.801.904-1.786.904-2.921 0-2.052-.68-3.588-2.039-4.54-1.345-.991-3.425-1.48-6.278-1.48h-7.625v3.69H933.032c.897 0 1.617.183 2.1.59.482.428.747 1.04.747 1.787 0 .816-.251 1.455-.713 1.835-.442.38-1.19.591-2.134.591H925.326v12.245h5.212v-8.446h.265c.163-.02.231-.02.32-.02.978 0 1.787.17 2.283.523.584.34 1.087 1.005 1.488 1.984l2.657 5.959h5.85z" style="stroke-width:6.79507" transform="translate(-240.566 -766.258)"/><path fill="#2d4590" d="M809.349 955.569v3.825h13.42v-3.825zM809.37 976.297h5.206v-8.508h7.746v-3.907h-7.746v-.027h-5.205z" style="stroke-width:6.79506" transform="translate(-240.566 -766.258)"/><path fill="#2d4590" d="M654.575 966.983c-.686-.904-1.766-1.576-3.207-2.025.897-.407 1.577-.944 2.066-1.651.455-.693.68-1.475.68-2.426 0-1.733-.68-3.058-2.087-3.982-1.352-.876-3.438-1.325-6.156-1.325h-7.665v3.663h6.38v.013h1.516c.924 0 1.597.211 2.08.592.455.414.692.971.692 1.78 0 .713-.224 1.257-.693 1.61-.448.36-1.155.544-2.079.544h-2.657v-.055h-5.239v3.765H646.387c1.312 0 2.263.217 2.848.632.631.435.944 1.06.944 1.964 0 .863-.299 1.481-.856 1.848-.585.374-1.57.564-2.895.564h-2.983v-.027h-5.239v3.832h9.255c2.766 0 4.804-.503 6.156-1.474 1.366-.986 2.046-2.48 2.046-4.444 0-1.38-.367-2.508-1.088-3.398M411.052 988.19c22.865-6.564 36.68-29.314 32.575-52.22a44.988 44.988 0 0 0-1.08-4.62 41.32 41.32 0 0 0-1.55-4.5c-4.994-9.478-16.097-14.5-26.813-11.429-11.776 3.37-18.775 15.283-16.247 27.079.19.49.36.992.496 1.502.163.51.272 1.026.387 1.535 2.542 11.796-4.47 23.695-16.233 27.072-10.709 3.078-21.826-1.95-26.834-11.436 8.657 21.601 32.44 33.574 55.299 27.017M468.36 864.269c.822-23.763-16.54-43.937-39.588-47.11a44.837 44.837 0 0 0-4.723-.408 46.104 46.104 0 0 0-4.756.075c-10.567 1.82-18.768 10.845-19.17 21.988-.407 12.232 8.74 22.574 20.733 23.797.53-.02 1.053-.02 1.59 0 .543.013 1.053.061 1.583.109 11.993 1.236 21.14 11.572 20.711 23.81-.38 11.137-8.589 20.16-19.155 21.982 23.219-1.563 41.96-20.474 42.775-44.243M368.646 769.04c-22.342-8.133-46.9 2.161-57.044 23.104a50.176 50.176 0 0 0-1.855 4.37 45.791 45.791 0 0 0-1.38 4.538c-1.522 10.607 4.512 21.208 14.983 25.013 11.504 4.186 24.164-1.325 29.042-12.354.15-.51.306-1.012.49-1.508.183-.496.38-.985.598-1.468 4.872-11.028 17.531-16.546 29.042-12.36 10.471 3.812 16.512 14.412 14.983 25.026 5.694-22.573-6.523-46.233-28.859-54.36M250.31 835.68c-14.643 18.74-12.448 45.275 4.335 61.393a46.45 46.45 0 0 0 3.581 3.113 50.648 50.648 0 0 0 3.88 2.724c9.629 4.737 21.568 2.263 28.438-6.53 7.535-9.642 6.197-23.382-2.773-31.44a20.347 20.347 0 0 1-1.29-.918 16.132 16.132 0 0 1-1.21-1.033c-8.983-8.045-10.315-21.785-2.786-31.434 6.863-8.786 18.815-11.26 28.437-6.523-19.706-12.387-45.975-8.086-60.612 10.648M275.223 970.996c13.298 19.719 39.207 25.828 59.729 14.854a55.38 55.38 0 0 0 4.056-2.447c1.339-.897 2.59-1.861 3.799-2.853 7.474-7.693 8.8-19.815 2.589-29.063-6.85-10.138-20.338-13.121-30.775-7.074-.422.32-.83.632-1.271.931-.455.306-.897.578-1.352.843-10.43 6.054-23.905 3.064-30.762-7.074-6.23-9.241-4.885-21.37 2.59-29.056-17.872 14.916-21.908 41.233-8.603 60.939" style="stroke-width:6.79507" transform="translate(-240.566 -766.258)"/><path fill="#d09a32" d="m400.57 870.575-.013-.027a11.398 11.398 0 0 0-10.091-7.903l-.068.014c-1.57-4.301-6.048-6.747-10.437-5.817l-.034.014a68.45 68.45 0 0 0-5.504 1.332l-.014-.014c-.088-1.963-.217-3.846-.435-5.633v-.027a9.096 9.096 0 0 0-8.752-8.134l-.013-.068c-1.679-4.24-5.803-7.182-10.641-7.182h-.02c-4.839 0-8.95 2.942-10.662 7.182v.068a9.09 9.09 0 0 0-8.746 8.134l.007.027a68.189 68.189 0 0 0-.441 5.633l-.014.041a71.59 71.59 0 0 0-5.497-1.345l-.02-.007c-4.417-.924-8.888 1.522-10.438 5.81l-.074-.008a11.409 11.409 0 0 0-10.111 7.91v.02c-1.495 4.607.027 9.425 3.526 12.34l.068.034c-1.27 4.39.91 9.004 5.022 10.825l.034.013a67.28 67.28 0 0 0 5.225 2.154l-.027.014a68.851 68.851 0 0 0-2.956 4.818l-.034.02c-2.242 3.894-1.291 8.922 2.31 11.715l-.027.068c-1.135 4.417.476 9.22 4.39 12.054l.013.02c3.914 2.848 8.983 2.895 12.836.456l.048-.04a9.095 9.095 0 0 0 11.85-1.448l.034-.02a74.97 74.97 0 0 0 3.65-4.302h.02a75.015 75.015 0 0 0 3.656 4.301l.013.02c3.017 3.35 8.086 4.003 11.864 1.448l.048.04c3.86 2.44 8.922 2.38 12.843-.454l.013-.02c3.907-2.841 5.518-7.638 4.39-12.055l-.034-.075c3.608-2.793 4.553-7.814 2.297-11.708l-.014-.02a59.578 59.578 0 0 0-2.963-4.818l.034-.027a71.123 71.123 0 0 0 5.246-2.161h.04c4.092-1.828 6.286-6.455 5.009-10.845l.068-.027a11.393 11.393 0 0 0 3.526-12.34m-15.479 19.828-24.591-2.412 22.505 10.179-23.117-8.712 19.115 15.67-20.086-14.385 14.398 20.08-15.676-19.109 8.705 23.117-10.193-22.505 2.42 24.598-4.01-24.374-4.016 24.374 2.426-24.598-10.206 22.505 8.711-23.117-15.663 19.108 14.392-20.08-20.08 14.386 19.102-15.67-23.117 8.712 22.505-10.18-24.584 2.413 24.353-4.016-24.353-4.023 24.584 2.426-22.505-10.179 23.117 8.698-19.101-15.67 20.08 14.4-14.393-20.08 15.663 19.087-8.711-23.11 10.206 22.512-2.426-24.584 4.016 24.374 4.01-24.374-2.42 24.584 10.193-22.512-8.705 23.11 15.676-19.087-14.398 20.08 20.086-14.4-19.115 15.67 23.117-8.698-22.505 10.18 24.591-2.427-24.374 4.023z" style="stroke-width:6.79507" transform="translate(-240.566 -766.258)"/><path fill="#394097" d="M517.759 847.81h30.666v11.41h-37.149c-2.045 0-3.533-.456-4.471-1.373-.992-1.094-1.488-2.915-1.488-5.47v-54.035h34.96v11.41H517.76Zm45.119-13.78h-5.076v42.259h-11.565v-77.947h11.565v24.096h5.076v-24.096h11.83v77.947h-11.83zM621.714 833.665v-4.743h12.266v4.743h31.107v10.131h-74.474v-10.131zm-.088-3.01h-22.6c-1.991 0-3.452-.456-4.383-1.373-.992-1.094-1.488-2.922-1.488-5.477v-25.46h69.391v9.58h-56.861v2.65h56.861v8.304h-56.861v2.827h56.861v8.949H634.51zm23.396 10.403c5.429 4.322 8.147 9.676 8.147 16.064 0 6.876-2.63 12.59-7.882 17.157-4.906 4.322-10.689 6.483-17.348 6.483-6.66 0-12.442-2.161-17.348-6.483-5.205-4.566-7.8-10.28-7.8-17.157 0-6.388 2.717-11.742 8.147-16.064 5.021-3.955 10.688-5.932 17-5.932 6.361 0 12.062 1.977 17.084 5.932m-26.026 7.121c-2.568 2.433-3.852 5.443-3.852 9.03 0 3.534 1.284 6.545 3.852 9.038 2.515 2.372 5.49 3.561 8.943 3.561 3.384 0 6.333-1.19 8.847-3.56 2.569-2.494 3.853-5.505 3.853-9.038 0-3.588-1.284-6.598-3.853-9.03-2.514-2.379-5.463-3.561-8.847-3.561-3.452 0-6.428 1.182-8.943 3.56M710.426 809.479H680.99v-11.137h41.878v24.917h-29.525v4.016h29.525v10.859h-36.007c-1.991 0-3.452-.456-4.383-1.366-.992-1.094-1.488-2.922-1.488-5.477v-17.885h29.436zm28.567 30.116c5.137 4.505 7.705 10.192 7.705 17.069 0 6.815-2.568 12.476-7.705 16.974-4.79 4.26-10.37 6.387-16.737 6.387-6.482 0-12.095-2.127-16.824-6.387-5.022-4.498-7.536-10.159-7.536-16.974 0-6.877 2.514-12.564 7.536-17.07 4.73-4.253 10.342-6.387 16.824-6.387 6.367 0 11.946 2.134 16.737 6.388m-25.06 8.398c-2.454 2.31-3.683 5.205-3.683 8.67 0 3.412 1.23 6.266 3.682 8.583 2.392 2.25 5.226 3.37 8.501 3.37 3.207 0 5.987-1.12 8.324-3.37 2.446-2.317 3.676-5.171 3.676-8.582 0-3.466-1.23-6.36-3.676-8.67-2.337-2.189-5.117-3.29-8.324-3.29-3.275 0-6.109 1.101-8.5 3.29m24.095-45.174v-4.478h12.353v39.792h-12.353v-9.398H727.42v-10.315h10.607v-5.293H727.42V802.82zM811.669 798.344v6.115c0 11.987-4.88 20.93-14.637 26.834-7.359 4.498-16.757 6.938-28.206 7.298v-11.77c10.104-.305 17.844-2.343 23.219-6.115 4.437-3.166 6.652-6.937 6.652-11.32H769.96v-11.042zm15.94 40.702c5.26 4.628 7.89 10.437 7.89 17.436 0 6.938-2.63 12.714-7.89 17.341-4.898 4.376-10.627 6.571-17.163 6.571-6.55 0-12.245-2.195-17.09-6.57-5.144-4.628-7.712-10.404-7.712-17.342 0-6.999 2.568-12.808 7.712-17.436 4.845-4.315 10.54-6.476 17.09-6.476 6.536 0 12.265 2.161 17.164 6.476m-25.577 8.67c-2.575 2.379-3.86 5.294-3.86 8.766 0 3.405 1.285 6.327 3.86 8.76 2.446 2.316 5.314 3.471 8.582 3.471 3.269 0 6.136-1.155 8.59-3.472 2.507-2.371 3.764-5.293 3.764-8.759 0-3.526-1.257-6.448-3.765-8.765-2.398-2.25-5.259-3.377-8.589-3.377-3.268 0-6.136 1.128-8.582 3.377m23.824-44.263v-5.11h12.36v37.148h-12.36v-6.027h-11.124V819.15h11.124v-5.381h-11.124v-10.315zM897.574 840.327v20.446h31.013v11.41h-74.474v-11.41h31.02v-20.446zm12.972-29.022a16.914 16.914 0 0 1 3.234 5.11c.822 1.95 1.23 4.016 1.23 6.204 0 6.632-2.487 12.143-7.447 16.519-4.614 4.138-10.023 6.21-16.213 6.21-6.367 0-11.85-2.072-16.465-6.21-4.967-4.376-7.447-9.887-7.447-16.519 0-2.066.346-4.104 1.053-6.115.578-1.7 1.481-3.432 2.711-5.199h-12.706v-11.32h26.113v-7.21h13.23v7.21h26.195v11.32zm-27.52 3.56c-2.215 2.189-3.323 4.805-3.323 7.85 0 3.159 1.108 5.836 3.323 8.031 2.222 2.25 5 3.377 8.324 3.377 3.098 0 5.755-1.128 7.977-3.377 2.222-2.195 3.33-4.872 3.33-8.032 0-3.044-1.108-5.66-3.33-7.848-2.222-2.134-4.879-3.194-7.977-3.194-3.269 0-6.041 1.06-8.324 3.194M973.836 812.689c.482 11.32 2.31 19.869 5.477 25.644 2.854 5.294 6.992 8.46 12.414 9.493v12.687c-5.844-.728-10.838-2.705-14.97-5.933-4.138-3.288-7.331-7.726-9.58-13.325-2.317 5.477-5.783 9.921-10.41 13.325-4.26 3.167-8.977 5.144-14.148 5.933V847.92c5.294-1.155 9.405-4.383 12.326-9.676 3.221-5.844 5.076-14.358 5.566-25.556H943.72v-11.41h16.79v-7.12h13.414v7.12h16.614v11.41zm29.477 6.754v-21.085h12.87v77.946h-12.87v-45.452H986.25v-11.409Z" style="stroke-width:6.79507" transform="translate(-240.566 -766.258)"/></svg>